<mxfile host="app.diagrams.net" modified="2023-04-23T08:13:53.649Z" agent="Mozilla/5.0 (X11; Linux x86_64) AppleWebKit/537.36 (KHTML, like Gecko) Chrome/112.0.0.0 Safari/537.36" etag="acv992_EAUZjb6qc7188" version="21.2.1" type="github">
  <diagram name="Pagina-1" id="pmZUNeCn2QfLpuEW-w0X">
    <mxGraphModel dx="581" dy="361" grid="1" gridSize="10" guides="1" tooltips="1" connect="1" arrows="1" fold="1" page="1" pageScale="1" pageWidth="827" pageHeight="1169" math="0" shadow="0">
      <root>
        <mxCell id="0" />
        <mxCell id="1" parent="0" />
        <mxCell id="BdhePRhXEv9RCVUlLokD-1" value="" style="rounded=0;whiteSpace=wrap;html=1;" parent="1" vertex="1">
          <mxGeometry x="200" y="80" width="760" height="880" as="geometry" />
        </mxCell>
        <mxCell id="BdhePRhXEv9RCVUlLokD-2" value="" style="rounded=0;whiteSpace=wrap;html=1;fillColor=#dae8fc;strokeColor=none;" parent="1" vertex="1">
          <mxGeometry x="220" y="80" width="720" height="130" as="geometry" />
        </mxCell>
        <mxCell id="BdhePRhXEv9RCVUlLokD-3" value="&lt;font style=&quot;font-size: 36px;&quot;&gt;Name&lt;/font&gt;" style="text;html=1;align=center;verticalAlign=middle;resizable=0;points=[];autosize=1;strokeColor=none;fillColor=none;" parent="1" vertex="1">
          <mxGeometry x="230" y="70" width="120" height="60" as="geometry" />
        </mxCell>
        <mxCell id="ar-AbY8KUBSnzsoTHz6L-1" value="" style="rounded=0;whiteSpace=wrap;html=1;fillColor=#647687;strokeColor=none;fontColor=#ffffff;" vertex="1" parent="1">
          <mxGeometry x="220" y="210" width="720" height="59" as="geometry" />
        </mxCell>
        <mxCell id="ar-AbY8KUBSnzsoTHz6L-2" value="" style="rounded=0;whiteSpace=wrap;html=1;fillColor=#b0e3e6;strokeColor=none;" vertex="1" parent="1">
          <mxGeometry x="220" y="269" width="720" height="41" as="geometry" />
        </mxCell>
      </root>
    </mxGraphModel>
  </diagram>
</mxfile>
